<?xml version="1.0" standalone="no"?>
<!DOCTYPE svg PUBLIC "-//W3C//DTD SVG 20010904//EN"
 "http://www.w3.org/TR/2001/REC-SVG-20010904/DTD/svg10.dtd">
<svg version="1.0" xmlns="http://www.w3.org/2000/svg"
 width="128.000000pt" height="128.000000pt" viewBox="0 0 128.000000 128.000000"
 preserveAspectRatio="xMidYMid meet">
<metadata>
Created by potrace 1.14, written by Peter Selinger 2001-2017
</metadata>
<g transform="translate(0.000000,128.000000) scale(0.100000,-0.100000)"
fill="#000000" stroke="none">
<path d="M0 640 l0 -640 640 0 640 0 0 640 0 640 -640 0 -640 0 0 -640z m861
579 c46 -49 36 -119 -23 -153 -40 -24 -89 -14 -122 25 -57 67 -9 158 82 159
25 0 41 -8 63 -31z m199 -169 c11 -11 20 -27 20 -35 0 -16 -104 -209 -128
-237 -20 -24 -61 -23 -88 3 -26 24 -24 29 -49 -100 l-17 -83 105 -107 c82 -83
107 -114 111 -141 49 -286 48 -280 32 -306 -22 -32 -60 -40 -91 -20 -28 18
-27 17 -55 181 l-20 119 -67 68 c-37 37 -70 68 -73 68 -3 0 -27 -43 -55 -96
-27 -52 -57 -102 -67 -110 -13 -13 -46 -15 -183 -12 -161 3 -167 4 -186 27
-25 31 -24 66 2 92 21 21 29 21 153 17 l132 -5 42 81 c34 65 48 110 72 229 17
81 30 152 30 157 0 6 -10 5 -24 -1 -22 -10 -25 -20 -31 -93 -8 -87 -23 -116
-61 -116 -43 0 -54 32 -47 144 3 56 9 108 14 117 9 17 237 119 267 119 12 0
38 -21 64 -51 l43 -50 38 70 c50 93 78 110 117 71z m-693 -62 c121 -125 121
-367 2 -503 -34 -38 -50 -43 -69 -20 -10 12 -7 21 20 52 99 113 106 298 15
417 -39 51 -40 57 -23 74 17 17 20 16 55 -20z m-97 -70 c48 -51 65 -99 64
-183 0 -61 -5 -89 -21 -120 -27 -52 -68 -89 -87 -82 -21 8 -20 41 1 58 28 23
53 91 53 144 0 53 -25 121 -53 144 -10 7 -17 21 -17 31 0 36 29 40 60 8z m-97
-56 c25 -28 47 -88 47 -129 -1 -71 -51 -149 -87 -136 -18 7 -16 28 7 65 26 43
25 101 -2 149 -17 31 -19 41 -8 54 16 19 23 19 43 -3z"/>
</g>
</svg>
